<?xml version="1.0" encoding="UTF-8" standalone="no"?>
<svg
   xmlns:dc="http://purl.org/dc/elements/1.1/"
   xmlns:cc="http://creativecommons.org/ns#"
   xmlns:rdf="http://www.w3.org/1999/02/22-rdf-syntax-ns#"
   xmlns:svg="http://www.w3.org/2000/svg"
   xmlns="http://www.w3.org/2000/svg"
   id="svg44"
   viewBox="0 0 15284 2684.0004"
   style="clip-rule:evenodd;fill-rule:evenodd;image-rendering:optimizeQuality;shape-rendering:geometricPrecision;text-rendering:geometricPrecision"
   version="1.1"
   height="26.84mm"
   width="152.84mm"
   xml:space="preserve"><metadata
   id="metadata48"><rdf:RDF><cc:Work
       rdf:about=""><dc:format>image/svg+xml</dc:format><dc:type
         rdf:resource="http://purl.org/dc/dcmitype/StillImage" /><dc:title></dc:title></cc:Work></rdf:RDF></metadata>
 <defs
   id="defs4">
  <style
   id="style2"
   type="text/css">
   <![CDATA[
    .fil2 {fill:#0D4CBC}
    .fil0 {fill:white}
    .fil1 {fill:#0D4CBC;fill-rule:nonzero}
   ]]>
  </style>
 
  
  
 
  
  
 
   
   
   
   
   
   
   
  </defs>
 
 <g
   transform="translate(-4635.5438,-10834.35)"
   id="Layer_x0020_2">
  <metadata
   id="CorelCorpID_1Corel-Layer" />
  <g
   id="g13">
   <path
   style="fill:#0d4cbc;fill-rule:nonzero"
   id="path11"
   d="m 6389,11058 c 313,0 597,127 802,332 147,147 254,335 303,544 -19,-1 -38,-2 -57,-2 -41,0 -81,3 -120,9 -44,-164 -131,-311 -248,-428 -174,-174 -414,-282 -680,-282 -265,0 -505,108 -679,282 -174,174 -281,414 -281,679 0,32 1,65 4,96 198,42 346,218 346,428 0,65 -14,127 -40,183 171,157 399,254 650,254 107,0 210,-18 305,-49 17,-6 35,-12 52,-19 28,52 61,100 100,145 -32,14 -65,26 -98,37 -114,38 -234,59 -359,59 -289,0 -553,-109 -753,-287 -78,71 -181,114 -294,114 -241,0 -437,-196 -437,-437 0,-214 153,-391 355,-430 -3,-31 -4,-62 -4,-94 0,-313 127,-597 332,-802 205,-205 488,-332 801,-332 z m 1131,1053 c 135,19 256,81 348,173 110,111 179,263 179,432 0,168 -69,321 -179,431 -110,110 -263,179 -431,179 -169,0 -322,-69 -432,-179 l -2,-2 v 0 l -2,-2 -1,-1 -1,-1 c -4,-4 -8,-9 -13,-14 l -1,-1 -1,-1 -1,-2 -2,-2 -1,-1 -1,-1 -4,-4 v 0 l -1,-2 -2,-2 -2,-2 v 0 l -2,-2 -1,-2 -1,-1 -3,-3 -1,-2 -1,-1 -1,-1 -3,-5 v 0 l -5,-5 v -1 0 l -2,-2 -2,-2 v -1 l -1,-2 -2,-2 -2,-2 v 0 l -1,-2 -2,-2 -1,-2 v -1 c -3,-3 -6,-7 -8,-11 v 0 l -2,-2 -2,-4 h -1 l -1,-3 -2,-2 v -2 h -1 l -3,-5 v -1 l -4,-6 v 0 l -4,-6 v -1 l -3,-5 -1,-1 -3,-6 v 0 l -3,-4 -1,-3 v 0 c -43,-78 -69,-168 -73,-262 v -4 -3 -3 -3 0 -3 l -1,-3 v -2 -1 -3 -3 c 0,-169 69,-321 179,-432 l 4,-4 3,-3 2,-1 2,-2 v -1 l 4,-3 1,-1 1,-1 4,-4 h 1 l 4,-4 1,-1 4,-3 1,-2 3,-2 3,-3 h 1 l 4,-4 v 0 l 1,-1 5,-4 v 0 l 5,-4 h 1 l 4,-3 2,-2 2,-2 3,-2 2,-2 4,-3 h 1 l 5,-4 v 0 l 5,-3 1,-1 4,-2 1,-1 3,-3 h 1 l 3,-2 2,-1 5,-3 v 0 l 5,-4 h 1 l 4,-3 v 0 l 4,-2 1,-1 3,-2 2,-1 5,-3 h 1 l 5,-3 v 0 l 5,-3 c 5,-3 11,-6 16,-8 l 5,-3 v 0 l 6,-3 h 1 l 4,-2 3,-2 3,-1 1,-1 c 3,-1 7,-3 10,-4 l 6,-2 c 5,-3 11,-5 16,-7 h 1 l 5,-2 6,-3 v 0 l 6,-2 c 13,-4 26,-9 40,-12 l 1,-1 5,-1 2,-1 5,-1 5,-1 h 1 l 6,-2 5,-1 h 1 l 6,-1 v 0 l 6,-2 h 1 l 5,-1 6,-1 6,-1 v 0 l 5,-1 h 2 l 5,-1 z m 226,296 c -80,-80 -189,-128 -309,-128 -121,0 -230,48 -310,128 -79,79 -128,188 -128,309 v 4 1 1 l 1,3 v 2 0 c 3,116 51,221 127,298 80,79 189,128 310,128 120,0 229,-49 309,-128 79,-79 128,-189 128,-309 0,-121 -49,-230 -128,-309 z m -563,-247 c 3,-1 7,-3 10,-4 z m 164,-48 4,-1 v 0 h 1 6 l 1,-1 v 0 h 1 l 6,-1 v 0 h 8 v 0 l 2,-1 h 1 3 1 1 1 1 2 l 1,-1 h 1 2 v 0 h 1 2 1 1 2 v 0 h 1 2 l 4,-1 h 1 v 0 h 6 1 1 1 1 2 1 1 2 v 0 h 1 3 2 1 1 v 0 l 2,-1 h 3 1 2 5 1 l 1,1 v 0 h 2 1 1 2 1 1 v 0 h 2 1 1 4 v 0 0 0 h 7 1 v 0 h 4 l 1,1 h 2 1 v 0 h 1 2 2 2 v 0 h 1 1 l 3,1 h 1 1 1 1 1 1 l 4,1 h 1 1 7 v 1 h 5 2 v 0 h 1 l 5,1 v 0 z"
   class="fil1" />
  </g>
 </g>
 <path
   style="fill:#000000;fill-opacity:1"
   id="path17"
   d="m 4679.4562,2014.65 c 142,0 268,-21 380,-64 v -217 c -112,48 -232,72 -362,72 -311,0 -467,-155 -467,-466 0,-287 156,-430 467,-430 130,0 250,24 362,72 v -217 c -112,-42 -238,-64 -380,-64 -465,0 -698,213 -698,639 0,450 233,675 698,675 z"
   class="fil2" /><polygon
   transform="translate(-4635.5438,-10834.35)"
   style="fill:#000000;fill-opacity:1"
   id="polygon19"
   points="10139,12840 10139,11544 9899,11544 9899,12840 "
   class="fil2" /><path
   style="fill:#000000;fill-opacity:1"
   id="path21"
   d="m 5684.4562,1529.65 c 2,318 158,478 471,478 315,0 472,-160 472,-478 0,-319 -157,-478 -472,-478 -314,0 -471,159 -471,478 z m 471,295 c -154,0 -231,-100 -231,-298 0,-194 77,-291 231,-291 154,0 231,97 231,291 0,198 -77,298 -231,298 z"
   class="fil2" /><path
   style="fill:#000000;fill-opacity:1"
   id="path23"
   d="m 6808.4562,1660.65 c 0,230 97,345 291,345 123,0 239,-41 348,-122 l 29,122 h 188 v -951 h -240 v 664 c -81,62 -161,93 -239,93 -91,0 -137,-53 -137,-158 v -599 h -240 z"
   class="fil2" /><path
   style="fill:#000000;fill-opacity:1"
   id="path25"
   d="m 7845.4562,1510.65 c 0,330 154,495 461,495 139,0 281,-19 427,-57 v -1239 h -240 v 390 c -67,-30 -133,-45 -197,-45 -301,0 -451,152 -451,456 z m 470,292 c -155,0 -233,-100 -233,-298 0,-167 75,-251 224,-251 75,0 137,16 187,49 v 474 c -56,17 -115,26 -178,26 z"
   class="fil2" /><path
   style="fill:#000000;fill-opacity:1"
   id="path27"
   d="m 8914.4562,1518.65 c 0,325 172,487 517,487 120,0 222,-9 306,-27 v -191 c -96,18 -192,28 -288,28 -197,0 -295,-67 -295,-202 h 631 c 6,-39 9,-78 9,-117 0,-295 -145,-442 -433,-442 -298,0 -447,155 -447,464 z m 646,-71 h -406 c 11,-137 80,-205 207,-205 133,0 199,66 199,198 z"
   class="fil2" /><path
   style="fill:#000000;fill-opacity:1"
   id="path29"
   d="m 9929.4562,1518.65 c 0,325 171.9998,487 516.9998,487 120,0 222,-9 306,-27 v -191 c -96,18 -192,28 -288,28 -197,0 -295,-67 -295,-202 h 631 c 6,-39 8,-78 8,-117 0,-295 -144,-442 -433,-442 -298,0 -445.9998,155 -445.9998,464 z m 645.9998,-71 h -406 c 10,-137 79,-205 206,-205 133,0 200,66 200,198 z"
   class="fil2" />
 <g
   transform="translate(-4635.5438,-10834.35)"
   id="Layer_x0020_4">
  <metadata
   id="CorelCorpID_3Corel-Layer" />
  <g
   id="g41">
   <path
   style="fill:#0d4cbc"
   id="path35"
   d="m 18537,12640 v 154 c 136,37 283,55 440,55 335,0 502,-127 502,-381 0,-235 -138,-353 -414,-353 h -167 c -159,0 -239,-69 -239,-208 0,-157 118,-236 354,-236 150,0 291,24 421,73 v -154 c -130,-37 -271,-55 -421,-55 -348,0 -521,124 -521,372 0,235 135,353 406,353 h 167 c 164,0 246,70 246,208 0,163 -111,245 -334,245 -157,0 -304,-24 -440,-73 z"
   class="fil2" />
   <path
   style="fill:#0d4cbc"
   id="path37"
   d="m 15602,12174 c 0,450 226,675 679,675 130,0 251,-18 363,-55 v -144 c -112,42 -227,63 -345,63 -353,0 -530,-180 -530,-539 0,-335 177,-503 530,-503 118,0 233,21 345,64 v -145 c -112,-37 -233,-55 -363,-55 -453,0 -679,213 -679,639 z"
   class="fil2" />
   <polygon
   style="fill:#0d4cbc"
   id="polygon39"
   points="16924,12840 17074,12840 17074,11777 17541,12840 17674,12840 18134,11777 18134,12840 18283,12840 18283,11544 18079,11544 17613,12625 17137,11544 16924,11544 "
   class="fil2" />
  </g>
 </g>
</svg>