<?xml version="1.0" encoding="UTF-8" standalone="no"?>
<svg
   xmlns:dc="http://purl.org/dc/elements/1.1/"
   xmlns:cc="http://creativecommons.org/ns#"
   xmlns:rdf="http://www.w3.org/1999/02/22-rdf-syntax-ns#"
   xmlns:svg="http://www.w3.org/2000/svg"
   xmlns="http://www.w3.org/2000/svg"
   id="svg44"
   viewBox="0 0 11400 5400"
   style="clip-rule:evenodd;fill-rule:evenodd;image-rendering:optimizeQuality;shape-rendering:geometricPrecision;text-rendering:geometricPrecision"
   version="1.1"
   height="54mm"
   width="114mm"
   xml:space="preserve"><metadata
   id="metadata48"><rdf:RDF><cc:Work
       rdf:about=""><dc:format>image/svg+xml</dc:format><dc:type
         rdf:resource="http://purl.org/dc/dcmitype/StillImage" /><dc:title></dc:title></cc:Work></rdf:RDF></metadata>
 <defs
   id="defs4">
  <style
   id="style2"
   type="text/css">
   <![CDATA[
    .fil2 {fill:#0D4CBC}
    .fil0 {fill:white}
    .fil1 {fill:#0D4CBC;fill-rule:nonzero}
   ]]>
  </style>
 
  
  
 
   
   
   
   
   
   
   
  </defs>
 
 <g
   transform="translate(-6504.3403,-9447.9387)"
   id="Layer_x0020_2">
  <metadata
   id="CorelCorpID_1Corel-Layer" />
  <g
   id="g13">
   <path
   style="fill:#0d4cbc;fill-rule:nonzero"
   id="path11"
   d="m 12105,9772 c 314,0 597,127 802,332 147,147 254,334 303,544 -19,-1 -38,-2 -57,-2 -41,0 -81,3 -120,9 -44,-165 -131,-312 -248,-429 -174,-174 -414,-281 -680,-281 -265,0 -505,107 -679,281 -174,174 -281,414 -281,679 0,33 1,65 5,97 197,42 345,217 345,427 0,66 -14,128 -40,183 171,158 400,254 650,254 108,0 210,-17 305,-49 17,-6 35,-12 52,-19 28,52 61,101 100,145 -32,14 -65,27 -98,38 -114,38 -234,58 -359,58 -289,0 -553,-108 -753,-286 -78,70 -181,113 -294,113 -241,0 -437,-196 -437,-437 0,-213 153,-391 355,-429 -3,-31 -4,-63 -4,-95 0,-313 127,-596 332,-801 205,-205 488,-332 801,-332 z m 1131,1053 c 135,18 256,81 348,173 110,110 179,263 179,431 0,168 -69,321 -179,431 -110,111 -263,179 -431,179 -169,0 -321,-68 -432,-179 l -2,-2 v 0 l -2,-2 -1,-1 h -1 c -4,-5 -8,-10 -13,-14 l -1,-2 v 0 l -2,-2 -2,-2 -1,-1 -1,-1 -3,-4 -1,-1 -1,-1 -2,-2 -1,-2 -1,-1 -1,-2 -2,-2 -1,-1 -3,-3 -1,-2 -1,-1 -1,-1 -3,-4 v 0 l -5,-6 v 0 -1 l -2,-2 -2,-2 v -1 l -1,-1 -2,-2 -1,-3 h -1 l -1,-2 -2,-2 -1,-2 v 0 c -3,-4 -5,-8 -8,-11 v -1 l -1,-2 -3,-4 v 0 l -2,-2 -1,-3 -1,-1 -1,-1 -3,-4 v -1 l -4,-6 v -1 l -4,-6 v 0 l -3,-5 -1,-1 -3,-6 v -1 l -3,-4 -1,-2 v 0 c -43,-79 -69,-168 -73,-263 v -3 -3 -3 -3 0 -4 -3 -1 -2 -3 -3 c 0,-168 68,-321 178,-431 l 5,-5 3,-3 1,-1 2,-2 v 0 l 4,-4 1,-1 1,-1 4,-4 h 1 l 4,-4 1,-1 4,-3 1,-1 3,-3 3,-2 1,-1 4,-3 1,-1 1,-1 4,-3 v 0 l 5,-4 1,-1 4,-3 2,-1 2,-3 4,-2 1,-1 4,-3 1,-1 5,-3 v -1 l 5,-3 1,-1 4,-2 1,-1 3,-2 h 1 l 4,-3 1,-1 5,-3 v 0 l 5,-3 1,-1 4,-2 1,-1 3,-2 1,-1 4,-2 1,-1 5,-2 1,-1 5,-3 v 0 l 5,-3 c 5,-2 11,-5 16,-8 l 5,-3 h 1 l 5,-2 1,-1 5,-2 2,-1 3,-2 h 1 c 4,-2 7,-3 10,-5 l 6,-2 c 5,-2 11,-5 17,-7 v 0 l 5,-2 6,-2 v 0 l 6,-2 c 13,-5 27,-9 40,-13 h 1 l 5,-1 2,-1 5,-1 6,-2 v 0 l 6,-1 5,-2 h 1 l 6,-1 v 0 l 6,-1 h 1 l 5,-1 6,-2 h 6 l 1,-1 h 4 l 2,-1 h 5 z m 226,295 c -79,-79 -189,-128 -309,-128 -121,0 -230,49 -309,128 -79,79 -128,188 -128,309 v 5 1 1 2 2 0 c 3,117 51,221 128,298 79,79 188,128 309,128 120,0 230,-49 309,-128 79,-79 128,-188 128,-309 0,-121 -49,-230 -128,-309 z m -563,-246 c 4,-2 7,-3 10,-5 z m 164,-49 h 4 v 0 h 1 l 6,-1 h 1 v 0 h 2 l 5,-1 h 1 l 7,-1 v 0 h 2 1 l 3,-1 h 1 1 1 1 2 1 1 2 v 0 h 1 l 2,-1 h 1 1 2 v 0 h 1 2 4 1 v 0 l 6,-1 h 1 1 1 1 2 1 2 1 v 0 h 1 3 2 1 1 1 1 3 1 2 5 1 2 v 0 h 1 1 2 1 1 1 1 1 1 2 3 v 0 0 h 1 l 6,1 h 1 v 0 h 4 2 1 1 v 0 h 2 1 l 2,1 h 2 1 v 0 h 1 3 1 2 v 0 h 1 1 l 2,1 h 3 1 1 l 7,1 v 0 l 6,1 h 1 v 0 h 1 l 5,1 v 0 z"
   class="fil1" />
  </g>
 </g>
 <path
   style="fill:#000000;fill-opacity:1"
   id="path17"
   d="m 954.6597,5164.0436 c 142,0 268,-20.9996 380,-62.9996 v -216.9992 c -112,48 -232,71.9996 -362,71.9996 -311,0 -467,-154.9992 -467,-465.998 0,-286.9988 156,-430.9984 467,-430.9984 130,0 250,24 362,72 v -216.9992 c -112,-42 -238,-62.9996 -380,-62.9996 -465,0 -698,212.9988 -698,638.9972 0,448.9984 233,673.9972 698,673.9972 z"
   class="fil2" /><polygon
   transform="translate(-6504.3403,-9447.9387)"
   style="fill:#000000;fill-opacity:1"
   id="polygon19"
   points="8043,14603 8283,14603 8283,13308 8043,13308 "
   class="fil2" /><path
   style="fill:#000000;fill-opacity:1"
   id="path21"
   d="m 1959.6597,4680.0456 c 2,317.9988 158,476.998 471,476.998 315,0 472,-158.9992 472,-476.998 0,-318.9988 -157,-478.998 -472,-478.998 -314,0 -471,159.9992 -471,478.998 z m 471,293.9988 c -154,0 -231,-98.9996 -231,-297.9988 0,-193.9992 77,-290.9988 231,-290.9988 154,0 231,96.9996 231,290.9988 0,198.9992 -77,297.9988 -231,297.9988 z"
   class="fil2" /><path
   style="fill:#000000;fill-opacity:1"
   id="path23"
   d="m 3083.6597,4810.0452 c 0,229.9992 97,344.9984 291,344.9984 123,0 239,-39.9996 348,-120.9992 l 29,120.9992 h 188 v -950.996 h -241 v 663.9972 c -80,62 -160,92.9996 -238,92.9996 -91,0 -137,-51.9996 -137,-156.9992 v -599.9976 h -240 z"
   class="fil2" /><path
   style="fill:#000000;fill-opacity:1"
   id="path25"
   d="m 4120.6597,4661.0456 c 0,329.9988 154,493.998 461,493.998 139,0 281,-18.9996 427,-56.9996 V 3860.0488 h -240 v 388.9988 c -67,-30 -133,-45 -197,-45 -301,0 -451,151.9992 -451,456.998 z m 470,290.9988 c -155,0 -233,-98.9996 -233,-297.9988 0,-166.9992 75,-250.9988 224,-250.9988 75,0 137,17 187,48.9996 v 473.9984 c -56,18 -115,25.9996 -178,25.9996 z"
   class="fil2" /><path
   style="fill:#000000;fill-opacity:1"
   id="path27"
   d="m 5189.6597,4669.0456 c 0,323.9988 172,485.998 517,485.998 120,0 222,-8.9996 306,-26.9996 v -189.9992 c -96,17.9996 -192,26.9996 -288,26.9996 -197,0 -295,-66.9996 -295,-200.9992 h 631 c 6,-38.9996 9,-78.9996 9,-117.9992 0,-294.9988 -145,-441.9984 -433,-441.9984 -298,0 -447,154.9992 -447,464.998 z m 646,-71.9996 h -406 c 11,-135.9996 80,-204.9992 207,-204.9992 132,0 199,65.9996 199,197.9992 z"
   class="fil2" /><path
   style="fill:#000000;fill-opacity:1"
   id="path29"
   d="m 6204.6597,4669.0456 c 0,323.9988 172,485.998 517,485.998 120,0 222,-8.9996 306,-26.9996 v -189.9992 c -96,17.9996 -192,26.9996 -288,26.9996 -197,0 -295,-66.9996 -295,-200.9992 h 631 c 6,-38.9996 8,-78.9996 8,-117.9992 0,-294.9988 -144,-441.9984 -433,-441.9984 -298,0 -446,154.9992 -446,464.998 z m 646,-71.9996 h -406 c 10,-135.9996 79,-204.9992 206,-204.9992 133,0 200,65.9996 200,197.9992 z"
   class="fil2" />
 <g
   transform="translate(-6504.3403,-9447.9387)"
   id="Layer_x0020_4">
  <metadata
   id="CorelCorpID_3Corel-Layer" />
  <g
   id="g41">
   <path
   style="fill:#0d4cbc"
   id="path35"
   d="m 16681,14404 v 154 c 136,36 283,54 440,54 335,0 502,-126 502,-380 0,-236 -138,-354 -414,-354 h -167 c -159,0 -239,-69 -239,-208 0,-157 118,-235 354,-235 150,0 291,24 421,72 v -154 c -130,-36 -271,-54 -421,-54 -348,0 -521,124 -521,371 0,236 135,354 406,354 h 167 c 164,0 246,69 246,208 0,163 -111,245 -334,245 -157,0 -304,-25 -440,-73 z"
   class="fil2" />
   <path
   style="fill:#0d4cbc"
   id="path37"
   d="m 13746,13938 c 0,449 226,674 679,674 130,0 251,-18 363,-54 v -145 c -112,42 -227,64 -345,64 -353,0 -530,-180 -530,-539 0,-336 177,-503 530,-503 118,0 233,21 345,63 v -145 c -112,-36 -233,-54 -363,-54 -453,0 -679,213 -679,639 z"
   class="fil2" />
   <polygon
   style="fill:#0d4cbc"
   id="polygon39"
   points="16223,13308 15757,14389 15281,13308 15068,13308 15068,14603 15218,14603 15218,13541 15685,14603 15818,14603 16278,13541 16278,14603 16427,14603 16427,13308 "
   class="fil2" />
  </g>
 </g>
</svg>