<svg id="Capa_1" data-name="Capa 1" xmlns="http://www.w3.org/2000/svg" xmlns:xlink="http://www.w3.org/1999/xlink" viewBox="0 0 518.81 69.45"><defs><style>.cls-1{fill:#010101;}.cls-2{fill:url(#Nueva_muestra_de_degradado_2);}.cls-3{fill:url(#Nueva_muestra_de_degradado_2-2);}.cls-4{fill:url(#Nueva_muestra_de_degradado_2-3);}.cls-5{fill:url(#Degradado_sin_nombre_24);}.cls-6{fill:url(#Nueva_muestra_de_degradado_2-4);}</style><linearGradient id="Nueva_muestra_de_degradado_2" x1="331.97" y1="41.28" x2="489.31" y2="41.28" gradientUnits="userSpaceOnUse"><stop offset="0.01" stop-color="#e62d36"/><stop offset="0.24" stop-color="#e12a36"/><stop offset="0.52" stop-color="#d32335"/><stop offset="0.82" stop-color="#bb1734"/></linearGradient><linearGradient id="Nueva_muestra_de_degradado_2-2" x1="332.8" y1="36.21" x2="490.13" y2="36.21" xlink:href="#Nueva_muestra_de_degradado_2"/><linearGradient id="Nueva_muestra_de_degradado_2-3" x1="332.8" y1="40.39" x2="490.13" y2="40.39" xlink:href="#Nueva_muestra_de_degradado_2"/><linearGradient id="Degradado_sin_nombre_24" x1="0.63" y1="34.87" x2="141.61" y2="34.87" gradientUnits="userSpaceOnUse"><stop offset="0.04" stop-color="#e62d36"/><stop offset="0.31" stop-color="#e12a36"/><stop offset="0.65" stop-color="#d32335"/><stop offset="1" stop-color="#bb1734"/></linearGradient><linearGradient id="Nueva_muestra_de_degradado_2-4" x1="333.81" y1="34.72" x2="486.61" y2="34.72" xlink:href="#Nueva_muestra_de_degradado_2"/></defs><title>WEG_Logo SVG</title><path class="cls-1" d="M171.6,60.35,160.87,10a.93.93,0,0,1,.91-1.12h8.47a.91.91,0,0,1,.9.75l7.49,38.28a.92.92,0,0,0,1.8,0L188.53,9.6a.92.92,0,0,1,.9-.73H203a.93.93,0,0,1,.9.74l7.87,38.11a.92.92,0,0,0,1.81,0l7.47-38.09a.93.93,0,0,1,.91-.75h8.47a.93.93,0,0,1,.9,1.12L220.46,60.35a.91.91,0,0,1-.9.73H205.92a.91.91,0,0,1-.9-.74L197.1,20.22a.92.92,0,0,0-1.81,0L187,60.34a.92.92,0,0,1-.9.74H172.5A.91.91,0,0,1,171.6,60.35Z"/><path class="cls-1" d="M253.29,60.78a19.53,19.53,0,0,1-14.43-6,19.73,19.73,0,0,1-5.93-14.36A20.38,20.38,0,0,1,253.29,20a19.53,19.53,0,0,1,13,4.73,19.94,19.94,0,0,1,7,11.82,16.88,16.88,0,0,1,.23,6.72.91.91,0,0,1-.91.74H243.76a.93.93,0,0,0-.89,1.2A9.51,9.51,0,0,0,246.28,50a11.38,11.38,0,0,0,7,2.17,13.53,13.53,0,0,0,9.77-3.73.94.94,0,0,1,.89-.24l6.86,1.87a.93.93,0,0,1,.56,1.37A17.55,17.55,0,0,1,264.3,58,23.2,23.2,0,0,1,253.29,60.78ZM243.8,36.62h18.77a.92.92,0,0,0,.87-1.23,10.5,10.5,0,0,0-3.28-4.52,11.63,11.63,0,0,0-13.91,0,10.35,10.35,0,0,0-3.32,4.52A.92.92,0,0,0,243.8,36.62Z"/><path class="cls-1" d="M302.27,61.68A15.76,15.76,0,0,1,292,58.21a.92.92,0,0,0-1.49.72v1.23a.92.92,0,0,1-.92.92h-7.85a.93.93,0,0,1-.93-.92V9.79a.93.93,0,0,1,.93-.92h7.85a.92.92,0,0,1,.92.92v14a.92.92,0,0,0,1.52.7,15.54,15.54,0,0,1,10.27-3.59,18.27,18.27,0,0,1,13.94,5.86,20.28,20.28,0,0,1,5.67,14.58,20.34,20.34,0,0,1-5.56,14.39A18.37,18.37,0,0,1,302.27,61.68Zm-9-12.23a11.15,11.15,0,0,0,8.13,3.43,11,11,0,0,0,8.09-3.43,11.47,11.47,0,0,0,0-16.3,10.94,10.94,0,0,0-8.09-3.47,11.07,11.07,0,0,0-8.13,3.47,11.4,11.4,0,0,0,0,16.3Z"/><path class="cls-2" d="M398.17,61.68a21.29,21.29,0,0,1-4.85-.56,18.4,18.4,0,0,1-4.74-1.87,9.83,9.83,0,0,1-3.8-3.87,12.19,12.19,0,0,1-1.46-6.08q-.07-6.19,4.18-9.21t11.78-3L410,37a.93.93,0,0,0,.92-.93V34.9a4.77,4.77,0,0,0-2.39-4.4,12.21,12.21,0,0,0-6.26-1.42q-6.88,0-8.54,4.23a.89.89,0,0,1-.84.55l-7.61.06a.93.93,0,0,1-.94-1,11.27,11.27,0,0,1,5.17-8.45A21.38,21.38,0,0,1,402,20.88a22.21,22.21,0,0,1,12.76,3.58q5.29,3.59,5.29,9.32V60.16a.92.92,0,0,1-.92.92h-7.33a.92.92,0,0,1-.92-.92V58.42a.92.92,0,0,0-1.5-.72A17.86,17.86,0,0,1,406,60,16.66,16.66,0,0,1,398.17,61.68Zm.82-8a13.17,13.17,0,0,0,8.2-2.87A8.77,8.77,0,0,0,410.86,45a.93.93,0,0,0-.93-1h-8.86q-4.17,0-6.26,1.56a4.15,4.15,0,0,0-1.79,4Q393.47,53.71,399,53.7Z"/><path class="cls-3" d="M453.44,59.11a.92.92,0,0,1-.69.89q-8.94,2.39-14.9-.86-6.19-3.35-6.19-11.93l.07-17.27a.93.93,0,0,0-.92-.93h-5.24a.92.92,0,0,1-.92-.92V21.58a.92.92,0,0,1,.92-.92h5.24a.92.92,0,0,0,.92-.92V12.33a.93.93,0,0,1,.93-.92h7.77a.93.93,0,0,1,.92.93l-.06,7.39a.92.92,0,0,0,.92.93h9.93a.93.93,0,0,1,.93.92v6.51a.93.93,0,0,1-.93.92H442.2a.92.92,0,0,0-.92.92l-.07,17.21a4.14,4.14,0,0,0,3,4.17q2.7,1,8.08-.47a.91.91,0,0,1,1.17.88Z"/><path class="cls-4" d="M478,60.78a19.55,19.55,0,0,1-14.44-6,19.72,19.72,0,0,1-5.92-14.36A20.37,20.37,0,0,1,478,20a19.57,19.57,0,0,1,12.94,4.73,19.89,19.89,0,0,1,7,11.82,16.88,16.88,0,0,1,.23,6.72.91.91,0,0,1-.91.74H468.44a.93.93,0,0,0-.89,1.2A9.47,9.47,0,0,0,471,50a11.34,11.34,0,0,0,7,2.17,13.54,13.54,0,0,0,9.77-3.73.92.92,0,0,1,.88-.24l6.86,1.87a.93.93,0,0,1,.56,1.37A17.55,17.55,0,0,1,489,58,23.19,23.19,0,0,1,478,60.78Zm-9.5-24.16h18.77a.92.92,0,0,0,.87-1.23,10.41,10.41,0,0,0-3.28-4.51,10.63,10.63,0,0,0-6.94-2.32,10.77,10.77,0,0,0-7,2.32,10.35,10.35,0,0,0-3.32,4.51A.92.92,0,0,0,468.48,36.62Z"/><path class="cls-1" d="M513.32,58.87a6.31,6.31,0,1,1,1.82-4.43A6,6,0,0,1,513.32,58.87Z"/><path class="cls-5" d="M141.61,34.31V60.08a.77.77,0,0,1-.78.77H123.3a.76.76,0,0,1-.77-.76c0-3.52-.14-18.33,0-25.52.11-4.54-2.64-6.55-6.6-6.77-.41,0-.81,0-1.22,0H27.47a14.15,14.15,0,0,0-2.26.12,10.35,10.35,0,0,0-2.4.69,6.83,6.83,0,0,0-3,4,.09.09,0,0,0,0,.05,11.69,11.69,0,0,0-.12,1.74c0,7,0,22.06,0,25.63a.77.77,0,0,1-.78.77H1.4a.77.77,0,0,1-.77-.77V34.31A25.59,25.59,0,0,1,1,29.82H1A25.52,25.52,0,0,1,23.19,9.06,22.48,22.48,0,0,1,26,8.89h90.14a24.08,24.08,0,0,1,3.73.28l.29,0a25.55,25.55,0,0,1,21.33,23C141.57,32.94,141.61,33.62,141.61,34.31Z"/><path class="cls-6" d="M376.63,57.27a.86.86,0,0,1-.5.78A40.51,40.51,0,0,1,368,60.76a49.17,49.17,0,0,1-10.81,1.06,31.55,31.55,0,0,1-11.44-2,26.16,26.16,0,0,1-8.88-5.61,25.38,25.38,0,0,1-5.79-8.6,28.3,28.3,0,0,1-2.08-11,28,28,0,0,1,2.15-11.18,24.85,24.85,0,0,1,5.9-8.49,26.31,26.31,0,0,1,8.85-5.39A31.61,31.61,0,0,1,357,7.63a34.35,34.35,0,0,1,11.33,1.78,24.11,24.11,0,0,1,7.58,4.1.85.85,0,0,1,.09,1.24l-5.14,5.55a.84.84,0,0,1-1.2.05,16.64,16.64,0,0,0-4.9-3.11A19.16,19.16,0,0,0,357,15.71a18.19,18.19,0,0,0-7.39,1.46,16.65,16.65,0,0,0-5.65,4,18.19,18.19,0,0,0-3.6,6,21.12,21.12,0,0,0-1.28,7.43,21.86,21.86,0,0,0,1.28,7.61,17.67,17.67,0,0,0,3.64,6,16.44,16.44,0,0,0,5.76,4,19.58,19.58,0,0,0,7.68,1.42A27.11,27.11,0,0,0,367.2,52a.84.84,0,0,0,.54-.8V39.51a.85.85,0,0,0-.85-.85h-9.15a.85.85,0,0,1-.85-.85V31.93a.85.85,0,0,1,.85-.85h18a.86.86,0,0,1,.86.85Z"/></svg>