<?xml version="1.0" encoding="UTF-8"?>
<svg width="840pt" version="1.1" xmlns="http://www.w3.org/2000/svg" height="150pt" viewBox="0 0 840 150" xmlns:xlink="http://www.w3.org/1999/xlink">
 <defs/>
 <g id="Background">
  <path style="fill:#262626; fill-rule:evenodd;stroke:none;" d="M104.865 83.8906 C104.578 84.9796 104.182 85.8547 103.678 86.5105 C103.175 87.1693 102.422 87.667 101.416 88.0082 C100.411 88.3471 99.1164 88.5743 97.5374 88.6883 C95.9566 88.8001 93.9442 88.8589 91.5017 88.8589 C88.7711 88.8589 86.5811 88.8001 84.9281 88.6883 C83.2761 88.5743 81.9709 88.3471 81.0128 88.0082 C80.054 87.667 79.3615 87.1693 78.9306 86.5105 C78.499 85.8547 78.1636 84.9796 77.9236 83.8906 L63.0529 28.1013 L62.9101 28.1013 L48.8289 83.8906 C48.5889 84.9347 48.2552 85.7854 47.8234 86.4412 C47.3918 87.1001 46.7093 87.6104 45.7754 87.9745 C44.8414 88.3369 43.572 88.5743 41.968 88.6883 C40.3632 88.8001 38.2437 88.8589 35.6103 88.8589 C32.8307 88.8589 30.6174 88.8001 28.9653 88.6883 C27.3131 88.5743 26.008 88.3471 25.0492 88.0082 C24.0911 87.667 23.397 87.1693 22.9661 86.5105 C22.5345 85.8547 22.1758 84.9796 21.8893 83.8906 L0.767115 7.07641 C0.336236 5.44396 0.0963045 4.16164 0.0489825 3.2326 C0 2.30354 0.27646 1.58946 0.874212 1.0888 C1.47446 0.59124 2.45577 0.284101 3.82063 0.170462 C5.18633 0.0583566 7.09001 0 9.53165 0 C11.7824 0 13.5656 0.0353191 14.884 0.102891 C16.2007 0.170462 17.1945 0.330168 17.8645 0.57895 C18.5361 0.829266 18.9903 1.19169 19.2302 1.66777 C19.4701 2.14378 19.6611 2.81336 19.8055 3.67487 L36.1134 71.1001 L36.1856 71.1001 L53.1385 4.15096 C53.3303 3.28944 53.5818 2.58605 53.8931 2.04242 C54.2045 1.49731 54.7308 1.07805 55.4739 0.783199 C56.2161 0.489883 57.2347 0.284101 58.5274 0.170462 C59.8209 0.0583566 61.5444 0 63.6997 0 C65.9993 0 67.8316 0.0460751 69.1948 0.136676 C70.5605 0.228818 71.6123 0.420777 72.3571 0.714094 C73.0993 1.01048 73.6381 1.42969 73.9718 1.97332 C74.3072 2.51851 74.5721 3.24337 74.763 4.15096 L92.2921 71.1001 L92.4358 71.1001 L108.744 3.87914 C108.888 3.15271 109.077 2.52928 109.317 2.00712 C109.557 1.48811 110.013 1.07805 110.683 0.783199 C111.354 0.489883 112.311 0.284101 113.556 0.170462 C114.801 0.0583566 116.549 0 118.801 0 C120.908 0 122.547 0.0583566 123.723 0.170462 C124.895 0.284101 125.745 0.59124 126.273 1.0888 C126.799 1.58946 127.028 2.32501 126.954 3.30014 C126.884 4.27684 126.632 5.60366 126.201 7.28061 L104.865 83.8906 Z" transform="translate(268.449, 15.2594)"/>
  <path style="fill:#262626; fill-rule:evenodd;stroke:none;" d="M45.4042 27.5561 C45.5463 22.748 44.5284 18.9717 42.3507 16.2275 C40.1697 13.4833 36.805 12.1103 32.2571 12.1103 C29.9573 12.1103 27.9566 12.5189 26.2571 13.3359 C24.556 14.1513 23.1438 15.2524 22.0206 16.636 C20.8931 18.0196 20.0306 19.6521 19.432 21.5332 C18.8325 23.416 18.4871 25.4231 18.3908 27.5561 L45.4042 27.5561 Z M62.9325 32.455 C62.9325 34.5404 62.441 36.0838 61.4597 37.0804 C60.4776 38.0786 59.1252 38.5777 57.4017 38.5777 L18.3908 38.5777 C18.3908 41.1623 18.7137 43.5103 19.3606 45.6203 C20.008 47.7288 21.0376 49.5209 22.4498 50.995 C23.862 52.4692 25.6834 53.5919 27.9109 54.3609 C30.1375 55.1339 32.8066 55.5192 35.9199 55.5192 C39.0814 55.5192 41.8576 55.3037 44.2528 54.8728 C46.6479 54.4427 48.7201 53.9663 50.4678 53.4442 C52.2161 52.9221 53.6657 52.4465 54.8138 52.0163 C55.9628 51.5831 56.8986 51.3684 57.6175 51.3684 C58.0467 51.3684 58.407 51.4479 58.6935 51.6059 C58.9808 51.7655 59.219 52.0485 59.4124 52.4566 C59.6034 52.8655 59.7362 53.4442 59.8076 54.1919 C59.8789 54.942 59.9147 55.8815 59.9147 57.0162 C59.9147 58.0148 59.8906 58.8655 59.8433 59.5668 C59.7952 60.2705 59.7237 60.8712 59.6275 61.3697 C59.5303 61.869 59.3859 62.2896 59.1966 62.6294 C59.0048 62.969 58.754 63.2985 58.4427 63.6153 C58.1314 63.9329 57.2796 64.3646 55.8915 64.9079 C54.5025 65.4536 52.7317 65.9859 50.5765 66.5071 C48.4196 67.0277 45.9539 67.4821 43.176 67.8674 C40.398 68.2511 37.4293 68.4445 34.2678 68.4445 C28.5676 68.4445 23.5755 67.766 19.2899 66.4058 C15.0019 65.0431 11.4221 62.9808 8.54868 60.2139 C5.67533 57.4462 3.53172 53.9544 2.11953 49.7359 C0.705679 45.5173 0 40.5726 0 34.9028 C0 29.5064 0.743039 24.6415 2.22663 20.3093 C3.71021 15.9788 5.8671 12.3038 8.69314 9.28776 C11.5175 6.27172 14.9537 3.96969 19.001 2.38183 C23.0484 0.793971 27.6112 0 32.688 0 C38.0502 0 42.6363 0.747896 46.4445 2.24518 C50.2518 3.74247 53.3768 5.81718 55.8192 8.47083 C58.2625 11.1245 60.0591 14.2663 61.209 17.8937 C62.3571 21.5225 62.9325 25.4691 62.9325 29.7322 L62.9325 32.455 Z" transform="translate(398.84, 36.8279)"/>
  <path style="fill:#262626; fill-rule:evenodd;stroke:none;" d="M45.7604 62.4589 C45.7604 59.8744 45.5562 57.3805 45.1511 54.9757 C44.7418 52.5708 44.0353 50.4408 43.0299 48.5795 C42.0245 46.7199 40.7194 45.2349 39.1138 44.123 C37.5089 43.0127 35.4866 42.4552 33.0465 42.4552 C31.846 42.4552 30.6739 42.615 29.5256 42.9329 C28.3766 43.2507 27.1911 43.7944 25.9682 44.5653 C24.7469 45.3377 23.4908 46.3343 22.1982 47.5583 C20.9047 48.7838 19.5391 50.3041 18.1036 52.1178 L18.1036 72.2581 C20.6416 75.3417 23.0691 77.6897 25.3945 79.2988 C27.7149 80.9082 30.1466 81.7134 32.6846 81.7134 C35.0324 81.7134 37.0191 81.1465 38.6488 80.0135 C40.2769 78.8796 41.6285 77.4057 42.7085 75.5905 C43.7837 73.7753 44.5624 71.7129 45.0406 69.3986 C45.5189 67.0859 45.7604 64.7716 45.7604 62.4589 Z M64.5116 61.235 C64.5116 66.6329 63.8873 71.4856 62.6419 75.7948 C61.3983 80.1055 59.6017 83.779 57.2556 86.8178 C54.9077 89.8567 52.021 92.1928 48.5981 93.8234 C45.1751 95.4573 41.2831 96.2727 36.9245 96.2727 C34.7685 96.2727 32.7576 96.0792 30.8897 95.6956 C29.02 95.3103 27.2359 94.6868 25.539 93.8234 C23.8362 92.9633 22.1609 91.8767 20.507 90.5589 C18.8583 89.2442 17.1671 87.6559 15.4445 85.7965 L15.4445 92.3956 C15.4445 92.8941 15.31 93.314 15.0492 93.6544 C14.7827 93.9956 14.3535 94.2795 13.7549 94.5051 C13.1555 94.7323 12.356 94.8896 11.3506 94.9816 C10.3453 95.0721 9.12236 95.1184 7.68609 95.1184 C6.19919 95.1184 4.96467 95.0721 3.98418 94.9816 C3.00371 94.8896 2.21335 94.7323 1.61477 94.5051 C1.01452 94.2795 0.595262 93.9956 0.356991 93.6544 C0.11623 93.314 0 92.8941 0 92.3956 L0 2.927 C0 2.47397 0.141136 2.06548 0.429219 1.70153 C0.716472 1.33911 1.20796 1.03351 1.90036 0.783196 C2.59607 0.534415 3.51843 0.34092 4.66994 0.204245 C5.81646 0.0691057 7.27846 0 9.05097 0 C10.8201 0 12.283 0.0691057 13.4337 0.204245 C14.5801 0.34092 15.5034 0.534415 16.1991 0.783196 C16.8915 1.03351 17.3838 1.33911 17.6694 1.70153 C17.9583 2.06548 18.1036 2.47397 18.1036 2.927 L18.1036 36.4692 C19.7291 34.9274 21.3581 33.6114 22.9877 32.5225 C24.6141 31.4338 26.2438 30.5385 27.8736 29.8351 C29.4982 29.1333 31.1769 28.622 32.9004 28.304 C34.6273 27.9876 36.4446 27.828 38.3599 27.828 C43.1029 27.828 47.1245 28.7248 50.4303 30.5155 C53.7363 32.3076 56.4286 34.7232 58.5117 37.7607 C60.5955 40.8013 62.1148 44.3503 63.0745 48.409 C64.0334 52.4695 64.5116 56.7448 64.5116 61.235 Z" transform="translate(476.544, 9)"/>
  <path style="fill:#d90000; fill-rule:evenodd;stroke:none;" d="M79.4553 15.1724 C79.4553 16.4885 79.3956 17.6218 79.2768 18.5739 C79.1557 19.526 78.9905 20.2862 78.7746 20.8528 C78.5555 21.4195 78.2931 21.8173 77.9851 22.0446 C77.6721 22.2718 77.2993 22.3839 76.8693 22.3839 C76.2458 22.3839 75.2396 21.9755 73.8532 21.1585 C72.4634 20.3431 70.6186 19.4585 68.3206 18.5048 C66.0217 17.5527 63.2779 16.6681 60.0949 15.8528 C56.9085 15.0358 53.2082 14.6273 48.9957 14.6273 C44.4926 14.6273 40.423 15.3645 36.7826 16.8386 C33.142 18.3129 30.0287 20.3999 27.4427 23.098 C24.8565 25.7978 22.8699 29.0411 21.4784 32.8281 C20.0886 36.6151 19.3945 40.7998 19.3945 45.3807 C19.3945 50.4162 20.1052 54.8496 21.5157 58.6811 C22.9296 62.5143 24.9047 65.7237 27.4427 68.3099 C29.9798 70.8944 33.0316 72.8462 36.6041 74.1602 C40.1714 75.4749 44.1116 76.1337 48.4196 76.1337 C50.5275 76.1337 52.6113 75.9081 54.6711 75.452 C56.73 74.9992 58.6436 74.3206 60.4195 73.4133 L60.4195 53.0008 L42.8173 53.0008 C41.9547 53.0008 41.2823 52.4908 40.8041 51.4697 C40.3251 50.4484 40.0851 48.713 40.0851 46.2652 C40.0851 44.9952 40.1473 43.9295 40.2686 43.0679 C40.3857 42.2064 40.5642 41.5138 40.8041 40.9917 C41.0423 40.4711 41.3304 40.0857 41.6666 39.8354 C42.0037 39.5865 42.3847 39.4621 42.8173 39.4621 L74.2101 39.4621 C74.9772 39.4621 75.658 39.5865 76.2582 39.8354 C76.8576 40.0857 77.3849 40.4604 77.8389 40.958 C78.2931 41.4586 78.6418 42.059 78.88 42.7608 C79.1199 43.4642 79.2412 44.2689 79.2412 45.1765 L79.2412 80.2164 C79.2412 81.5766 78.9905 82.767 78.4874 83.7883 C77.9851 84.8089 76.9506 85.6141 75.3982 86.2022 C73.8415 86.7935 71.912 87.406 69.6133 88.0404 C67.3151 88.6742 64.9317 89.2198 62.4668 89.6728 C59.9977 90.1256 57.5087 90.4669 54.9949 90.6941 C52.4785 90.9213 49.9522 91.0345 47.4142 91.0345 C39.988 91.0345 33.3446 90.0242 27.4783 88.0067 C21.6129 85.9867 16.6433 83.0618 12.5735 79.2288 C8.4997 75.397 5.38641 70.7254 3.23368 65.2139 C1.07678 59.7024 0 53.4537 0 46.4694 C0 39.2564 1.14984 32.7835 3.44704 27.0447 C5.74672 21.3074 9.00281 16.4301 13.217 12.4159 C17.4328 8.40163 22.5211 5.33036 28.4837 3.1973 C34.4471 1.06576 41.0904 0 48.4196 0 C52.4412 0 56.1057 0.261064 59.4107 0.781658 C62.7184 1.30379 65.6 1.93801 68.069 2.68741 C70.534 3.4353 72.5804 4.23996 74.2101 5.10148 C75.8398 5.96456 76.9747 6.71246 77.6231 7.34823 C78.269 7.9824 78.7389 8.87772 79.0261 10.0356 C79.3093 11.1919 79.4553 12.9043 79.4553 15.1724 Z" transform="translate(551.702, 14.1722)"/>
  <path style="fill:#d90000; fill-rule:evenodd;stroke:none;" d="M40.8049 38.7819 L33.9092 38.7819 C30.9869 38.7819 28.4979 38.9862 26.4389 39.3946 C24.3792 39.8017 22.7013 40.4144 21.407 41.2314 C20.1152 42.0468 19.1696 43.0342 18.5693 44.1891 C17.9699 45.3469 17.6744 46.6737 17.6744 48.171 C17.6744 50.7127 18.5212 52.7075 20.2231 54.1581 C21.9225 55.6112 24.282 56.3345 27.2982 56.3345 C29.8362 56.3345 32.1707 55.722 34.3027 54.4978 C36.4355 53.2719 38.5999 51.4816 40.8049 49.1232 L40.8049 38.7819 Z M58.5482 64.7712 C58.5482 65.4072 58.3091 65.9065 57.8309 66.269 C57.3526 66.6314 56.5988 66.8924 55.5694 67.0521 C54.5391 67.2086 53.0181 67.2903 51.0082 67.2903 C48.8513 67.2903 47.283 67.2086 46.3025 67.0521 C45.3163 66.8924 44.6239 66.6314 44.2188 66.269 C43.8086 65.9065 43.606 65.4072 43.606 64.7712 L43.606 59.9419 C40.9709 62.6167 37.968 64.7043 34.59 66.2013 C31.2143 67.6968 27.4692 68.4445 23.3496 68.4445 C19.9475 68.4445 16.8234 68.0255 13.9724 67.1857 C11.124 66.3484 8.65412 65.1013 6.57528 63.4447 C4.49144 61.7904 2.87419 59.7359 1.72185 57.2867 C0.575337 54.8374 0 51.9809 0 48.7162 C0 45.1765 0.729756 42.1051 2.19259 39.496 C3.65209 36.8884 5.82974 34.7339 8.72718 33.0323 C11.6263 31.3308 15.2294 30.0731 19.5391 29.2561 C23.8528 28.4407 28.8549 28.0323 34.5542 28.0323 L40.8049 28.0323 L40.8049 24.3574 C40.8049 22.4516 40.6023 20.7854 40.1922 19.3572 C39.787 17.9275 39.1187 16.7373 38.1814 15.7837 C37.2491 14.8316 36.0005 14.1297 34.4488 13.6752 C32.8921 13.2221 30.9628 12.9949 28.663 12.9949 C25.6478 12.9949 22.9529 13.3128 20.5801 13.947 C18.2132 14.5843 16.1177 15.2861 14.297 16.057 C12.4772 16.8279 10.9563 17.5313 9.73257 18.1655 C8.51299 18.8028 7.51923 19.1191 6.75377 19.1191 C6.22659 19.1191 5.76001 18.9609 5.35072 18.6432 C4.94557 18.3268 4.6085 17.8722 4.34533 17.2825 C4.08132 16.6928 3.87875 15.9665 3.73761 15.1049 C3.59149 14.2433 3.51843 13.2912 3.51843 12.247 C3.51843 10.8419 3.64047 9.72853 3.87875 8.9131 C4.11951 8.0961 4.5728 7.36046 5.24528 6.70174 C5.9136 6.04442 7.08585 5.31956 8.76454 4.52566 C10.4374 3.7317 12.4041 2.99457 14.6532 2.31429 C16.9039 1.63393 19.3606 1.07805 22.0206 0.646546 C24.6747 0.215043 27.4194 0 30.2445 0 C35.2707 0 39.5728 0.466884 43.1403 1.39444 C46.7076 2.32499 49.6424 3.75323 51.9406 5.68202 C54.2393 7.60923 55.913 10.0925 56.9667 13.1316 C58.021 16.1707 58.5482 19.7765 58.5482 23.9488 L58.5482 64.7712 Z" transform="translate(645.31, 36.8279)"/>
  <path style="fill:#d90000; fill-rule:evenodd;stroke:none;" d="M45.332 73.4124 C45.332 75.4095 45.1992 76.9388 44.9352 78.0042 C44.672 79.0723 44.3266 79.82 43.8941 80.2502 C43.4641 80.681 42.8264 81.0647 41.9921 81.4067 C41.1536 81.7472 40.1723 82.0397 39.0457 82.2905 C37.9182 82.539 36.6979 82.7347 35.3811 82.87 C34.0627 83.0052 32.7328 83.0737 31.3952 83.0737 C27.8038 83.0737 24.6905 82.6427 22.0553 81.7795 C19.4203 80.9193 17.2452 79.5944 15.5174 77.8006 C13.7939 76.0095 12.5254 73.7521 11.7101 71.0292 C10.8965 68.3095 10.4906 65.0896 10.4906 61.3687 L10.4906 30.2759 L2.80445 30.2759 C1.89205 30.2759 1.19966 29.743 0.721454 28.6772 C0.238271 27.6115 0 25.8315 0 23.3361 C0 22.0215 0.0597752 20.9098 0.180986 20.0022 C0.299707 19.0961 0.478202 18.382 0.721454 17.86 C0.959725 17.3378 1.25611 16.9631 1.61643 16.7358 C1.97756 16.5101 2.39433 16.3964 2.87253 16.3964 L10.4906 16.3964 L10.4906 2.85635 C10.4906 2.40338 10.6209 1.99641 10.8832 1.63245 C11.1473 1.27005 11.6254 0.964433 12.3228 0.714086 C13.0152 0.465312 13.9476 0.284156 15.1231 0.168968 C16.2954 0.056847 17.7466 0 19.4693 0 C21.2409 0 22.7121 0.056847 23.8877 0.168968 C25.0599 0.284156 25.9839 0.465312 26.6522 0.714086 C27.3222 0.964433 27.8038 1.27005 28.0918 1.63245 C28.3791 1.99641 28.5219 2.40338 28.5219 2.85635 L28.5219 16.3964 L42.4587 16.3964 C42.9368 16.3964 43.3586 16.5101 43.7156 16.7358 C44.0751 16.9631 44.3723 17.3378 44.6155 17.86 C44.8538 18.382 45.0323 19.0961 45.1535 20.0022 C45.2723 20.9098 45.332 22.0215 45.332 23.3361 C45.332 25.8315 45.0938 27.6115 44.6155 28.6772 C44.1324 29.743 43.44 30.2759 42.5317 30.2759 L28.5219 30.2759 L28.5219 58.7826 C28.5219 62.0966 29.0732 64.5781 30.1757 66.2354 C31.2732 67.8888 33.2408 68.7168 36.0652 68.7168 C37.0216 68.7168 37.8859 68.6382 38.6514 68.4785 C39.4184 68.3222 40.0992 68.1389 40.6994 67.9353 C41.2947 67.7309 41.797 67.5492 42.2071 67.3896 C42.613 67.2332 42.9859 67.1522 43.3213 67.1522 C43.6102 67.1522 43.8808 67.2332 44.1448 67.3896 C44.408 67.5492 44.6155 67.8661 44.7567 68.3418 C44.902 68.8183 45.0323 69.4662 45.1535 70.2815 C45.2723 71.0984 45.332 72.1426 45.332 73.4124 Z" transform="translate(713.13, 21.9964)"/>
  <path style="fill:#d90000; fill-rule:evenodd;stroke:none;" d="M45.4026 27.5561 C45.5454 22.748 44.5267 18.9717 42.3507 16.2275 C40.1697 13.4833 36.805 12.1103 32.2571 12.1103 C29.9573 12.1103 27.9549 12.5189 26.2571 13.3359 C24.5577 14.1513 23.1438 15.2524 22.0172 16.636 C20.8931 18.0196 20.0306 19.6521 19.4311 21.5332 C18.8342 23.416 18.4854 25.4231 18.3884 27.5561 L45.4026 27.5561 Z M62.9308 32.455 C62.9308 34.5404 62.441 36.0838 61.4605 37.0804 C60.4743 38.0786 59.1252 38.5777 57.3983 38.5777 L18.3884 38.5777 C18.3884 41.1623 18.7122 43.5103 19.3613 45.6203 C20.0073 47.7288 21.0359 49.5209 22.4498 50.995 C23.8611 52.4692 25.6817 53.5919 27.9117 54.3609 C30.1358 55.1339 32.8033 55.5192 35.9216 55.5192 C39.0789 55.5192 41.8559 55.3037 44.2511 54.8728 C46.6479 54.4427 48.7185 53.9663 50.4661 53.4442 C52.2129 52.9221 53.6641 52.4465 54.8122 52.0163 C55.9637 51.5831 56.896 51.3684 57.6175 51.3684 C58.0467 51.3684 58.407 51.4479 58.6909 51.6059 C58.9791 51.7655 59.2173 52.0485 59.4124 52.4566 C59.6034 52.8655 59.7338 53.4442 59.806 54.1919 C59.8789 54.942 59.9147 55.8815 59.9147 57.0162 C59.9147 58.0148 59.8906 58.8655 59.8416 59.5668 C59.7935 60.2705 59.7204 60.8712 59.6282 61.3697 C59.5303 61.869 59.3883 62.2896 59.1983 62.6294 C59.0039 62.969 58.7524 63.2985 58.4395 63.6153 C58.128 63.9329 57.2804 64.3646 55.8906 64.9079 C54.4992 65.4536 52.7317 65.9859 50.5748 66.5071 C48.4188 67.0277 45.9539 67.4821 43.1776 67.8674 C40.3973 68.2511 37.4293 68.4445 34.2678 68.4445 C28.5684 68.4445 23.5738 67.766 19.2882 66.4058 C15.0044 65.0431 11.4204 62.9808 8.55034 60.2139 C5.67533 57.4462 3.53172 53.9544 2.11621 49.7359 C0.705679 45.5173 0 40.5726 0 34.9028 C0 29.5064 0.743039 24.6415 2.22663 20.3093 C3.71021 15.9788 5.8671 12.3038 8.69148 9.28776 C11.5175 6.27172 14.9554 3.96969 19.001 2.38183 C23.0467 0.793971 27.6112 0 32.6863 0 C38.0486 0 42.638 0.747896 46.4454 2.24518 C50.251 3.74247 53.3768 5.81718 55.8209 8.47083 C58.261 11.1245 60.0574 14.2663 61.209 17.8937 C62.3556 21.5225 62.9308 25.4691 62.9308 29.7322 L62.9308 32.455 Z" transform="translate(765.889, 36.8279)"/>
  <path style="fill:none;stroke:#d90000; stroke-width:32.9565; stroke-linecap:butt; stroke-linejoin:miter; stroke-dasharray:none;" d="M215.079 73.1933 L215.079 25.4629 C215.079 11.4054 203.044 0 188.19 0 L26.8829 0 C12.0348 0 0 11.4054 0 25.4629 L0 73.1933 " transform="translate(21.0237, 32.3285)"/>
 </g>
</svg>
